# ASF file generated by Tido's ASF writer for MATLAB.
:version 1.10
:name VICON
:units
  mass 1
  length 0.45000000000000001
  angle deg
:documentation
   .ast/.asf automatically generated from VICON data using
   VICON BodyBuilder and BodyLanguage model FoxedUp or BRILLIANT.MOD
:root
  axis xyz
  order tx ty tz rx ry rz 
  position 0 0 0
  orientation 0 0 0
:bonedata
  begin
    id 1
    name lhipjoint
    direction 0.44017800000000001 -0.82263900000000001 0.359871
    length 1.1390085000000001
    axis 0 0 0 xyz
  end
  begin
    id 2
    name lfemur
    direction 0.34201999999999999 -0.939693 0
    length 3.5465939999999998
    axis 0 0 20 xyz
    dof rx ry rz 
    limits (-160 20)
           (-70 70)
           (-60 70)
  end
  begin
    id 3
    name ltibia
    direction 0.34201999999999999 -0.939693 0
    length 3.7970234999999999
    axis 0 0 20 xyz
    dof rx 
    limits (-10 170)
  end
  begin
    id 4
    name lfoot
    direction 0.088635099999999994 -0.24352299999999999 0.96583699999999995
    length 1.1853629999999999
    axis -90 7.62852e-016 20 xyz
    dof rx rz 
    limits (-45 90)
           (-70 20)
  end
  begin
    id 5
    name ltoes
    direction 1.53703e-011 -4.2171700000000001e-011 1
    length 0.59142150000000004
    axis -90 7.62852e-016 20 xyz
    dof rx 
    limits (-90 20)
  end
  begin
    id 6
    name rhipjoint
    direction -0.399779 -0.83977299999999999 0.367367
    length 1.115766
    axis 0 0 0 xyz
  end
  begin
    id 7
    name rfemur
    direction -0.34201999999999999 -0.939693 0
    length 3.4866269999999999
    axis 0 0 -20 xyz
    dof rx ry rz 
    limits (-160 20)
           (-70 70)
           (-70 60)
  end
  begin
    id 8
    name rtibia
    direction -0.34201999999999999 -0.939693 0
    length 3.9349440000000002
    axis 0 0 -20 xyz
    dof rx 
    limits (-10 170)
  end
  begin
    id 9
    name rfoot
    direction -0.108514 -0.29813899999999999 0.94833400000000001
    length 1.1974590000000001
    axis -90 -7.62852e-016 -20 xyz
    dof rx rz 
    limits (-45 90)
           (-20 70)
  end
  begin
    id 10
    name rtoes
    direction -1.5339199999999999e-011 -4.2207699999999999e-011 1
    length 0.59392350000000005
    axis -90 -7.62852e-016 -20 xyz
    dof rx 
    limits (-90 20)
  end
  begin
    id 11
    name lowerback
    direction 0.011325699999999999 0.99986600000000003 0.0118602
    length 1.164123
    axis 0 0 0 xyz
    dof rx ry rz 
    limits (-20 45)
           (-30 30)
           (-30 30)
  end
  begin
    id 12
    name upperback
    direction -0.016474699999999998 0.99519299999999999 -0.096537499999999998
    length 1.135656
    axis 0 0 0 xyz
    dof rx ry rz 
    limits (-20 45)
           (-30 30)
           (-30 30)
  end
  begin
    id 13
    name thorax
    direction -0.019430099999999999 0.99433000000000005 -0.10455200000000001
    length 1.1524455
    axis 0 0 0 xyz
    dof rx ry rz 
    limits (-20 45)
           (-30 30)
           (-30 30)
  end
  begin
    id 14
    name lowerneck
    direction 0.014854300000000001 0.995587 -0.092657000000000003
    length 0.772119
    axis 0 0 0 xyz
    dof rx ry rz 
    limits (-20 45)
           (-30 30)
           (-30 30)
  end
  begin
    id 15
    name upperneck
    direction -0.0135467 0.99365599999999998 -0.111639
    length 0.76021650000000007
    axis 0 0 0 xyz
    dof rx ry rz 
    limits (-20 45)
           (-30 30)
           (-30 30)
  end
  begin
    id 16
    name head
    direction -0.0061534900000000002 0.99954699999999996 -0.029447999999999998
    length 0.78578999999999999
    axis 0 0 0 xyz
    dof rx ry rz 
    limits (-20 45)
           (-30 30)
           (-30 30)
  end
  begin
    id 17
    name lclavicle
    direction 0.98826700000000001 0.14988499999999999 0.029371299999999999
    length 2.012499
    axis 0 0 0 xyz
    dof ry rz 
    limits (-20 10)
           (0 20)
  end
  begin
    id 18
    name lhumerus
    direction 1 -4.4898600000000001e-011 -1.1483300000000001e-027
    length 2.4171659999999999
    axis 180 -30 -90 xyz
    dof rx ry rz 
    limits (-60 90)
           (-90 90)
           (-90 90)
  end
  begin
    id 19
    name lradius
    direction 0.99999800000000005 0.00170963 -0.00098705499999999992
    length 1.773954
    axis 180 -30 -90 xyz
    dof rx 
    limits (-10 170)
  end
  begin
    id 20
    name lwrist
    direction 0.99999800000000005 7.53149e-005 -0.00194706
    length 0.88697700000000002
    axis 4.6505600000000004e-015 90 90 xyz
    dof ry 
    limits (-180 0)
  end
  begin
    id 21
    name lhand
    direction 1 -4.48973e-011 -1.3174599999999999e-026
    length 0.5306265
    axis 8.4064999999999996e-015 90 90 xyz
    dof rx rz 
    limits (-90 90)
           (-45 45)
  end
  begin
    id 22
    name lfingers
    direction 1 -4.49107e-011 -2.6349199999999999e-026
    length 0.42780555000000003
    axis 1.6812999999999999e-014 90 90 xyz
    dof rx 
    limits (0 90)
  end
  begin
    id 23
    name lthumb
    direction 0.70710700000000004 -6.3504800000000005e-011 0.70710700000000004
    length 0.6142455
    axis -90 45 2.8529899999999998e-015 xyz
    dof rx rz 
    limits (-45 45)
           (-45 45)
  end
  begin
    id 24
    name rclavicle
    direction -0.996699 0.064289499999999999 -0.049572499999999999
    length 2.0817494999999999
    axis 0 0 0 xyz
    dof ry rz 
    limits (-10 20)
           (-20 0)
  end
  begin
    id 25
    name rhumerus
    direction -1 -4.4891899999999998e-011 -2.4105900000000001e-027
    length 2.474145
    axis 180 30 90 xyz
    dof rx ry rz 
    limits (-90 60)
           (-90 90)
           (-90 90)
  end
  begin
    id 26
    name rradius
    direction -0.99999899999999997 0.0011810099999999999 -0.00068185800000000003
    length 1.5677145000000001
    axis 180 30 90 xyz
    dof rx 
    limits (-10 170)
  end
  begin
    id 27
    name rwrist
    direction -0.99999899999999997 0.000321823 -0.00132288
    length 0.78385499999999997
    axis 4.6505600000000004e-015 -90 -90 xyz
    dof ry 
    limits (-180 0)
  end
  begin
    id 28
    name rhand
    direction -1 -4.4902199999999998e-011 -1.3174599999999999e-026
    length 0.60719400000000001
    axis 8.4064999999999996e-015 -90 -90 xyz
    dof rx rz 
    limits (-90 90)
           (-45 45)
  end
  begin
    id 29
    name rfingers
    direction -1 -4.4917800000000002e-011 -2.6349199999999999e-026
    length 0.48953249999999998
    axis 1.6812999999999999e-014 -90 -90 xyz
    dof rx 
    limits (0 90)
  end
  begin
    id 30
    name rthumb
    direction -0.70710700000000004 -6.3471300000000002e-011 0.70710700000000004
    length 0.70287750000000004
    axis -90 -45 -2.8529899999999998e-015 xyz
    dof rx rz 
    limits (-45 45)
           (-45 45)
  end
:hierarchy
begin
  root lhipjoint rhipjoint lowerback 
  lhipjoint lfemur 
  lfemur ltibia 
  ltibia lfoot 
  lfoot ltoes 
  rhipjoint rfemur 
  rfemur rtibia 
  rtibia rfoot 
  rfoot rtoes 
  lowerback upperback 
  upperback thorax 
  thorax lowerneck lclavicle rclavicle 
  lowerneck upperneck 
  upperneck head 
  lclavicle lhumerus 
  lhumerus lradius 
  lradius lwrist 
  lwrist lhand lthumb 
  lhand lfingers 
  rclavicle rhumerus 
  rhumerus rradius 
  rradius rwrist 
  rwrist rhand rthumb 
  rhand rfingers 
end

# AMC file generated by Tido's AMC writer for MATLAB on 27-Nov-2005 at 18:24:20
# Corresponding ASF file: S:\data_MoCap\MoCaDaDB\HDM\Bonn_ASF_AMC_Use IK_on\björn\bjorn.asf
# Number of frames: 542
# Sampling rate: 120
:fully-specified
:degrees
424
root 12.558825000000001 8.4346650000000007 -4.9448699999999999 -3.5238700000000001 25.2883 359.68799999999999 
lfemur 6.7732099999999997 4.4664599999999997 -11.0214 
ltibia 56.0197 
lfoot 17.728100000000001 -1.5815999999999999 
ltoes -26.7912 
rfemur -25.058900000000001 -14.1943 24.183700000000002 
rtibia 42.046399999999998 
rfoot -10.8065 8.9313199999999995 
rtoes -4.0873299999999997 
lowerback -4.2265499999999996 -0.043616599999999998 5.4601699999999997 
upperback 10.348699999999999 -0.65870200000000001 0.70809699999999998 
thorax 13.6465 0.25121500000000002 -2.3654000000000002 
lowerneck 1.4905299999999999 -3.9261200000000001 0.079193 
upperneck 17.656500000000001 -5.7292199999999998 3.7292399999999999 
head 5.1735300000000004 -2.5125199999999999 0.92268399999999995 
lclavicle 1.33186e-014 -1.5107600000000001e-014 
lhumerus -19.116700000000002 -3.2269899999999998 86.396500000000003 
lradius 26.1709 
lwrist -28.910399999999999 
lhand -15.442399999999999 -11.940200000000001 
lfingers 7.1250200000000001 
lthumb 10.738099999999999 17.7653 
rclavicle 1.33186e-014 -1.5107600000000001e-014 
rhumerus -29.377400000000002 -28.530000000000001 -82.192899999999995 
rradius 21.192499999999999 
rwrist 17.834599999999998 
rhand -7.2964799999999999 11.741199999999999 
rfingers 7.1250200000000001 
rthumb 18.585699999999999 -17.390899999999998 
425
root 12.580830000000001 8.4424499999999991 -4.8839399999999999 -3.6859600000000001 24.919699999999999 359.54700000000003 
lfemur 5.5018099999999999 4.7786400000000002 -10.7791 
ltibia 57.941699999999997 
lfoot 17.121200000000002 -0.92912300000000003 
ltoes -26.9939 
rfemur -24.334900000000001 -14.075900000000001 24.2758 
rtibia 41.896299999999997 
rfoot -11.1181 9.2230000000000008 
rtoes -3.9449399999999999 
lowerback -4.0855600000000001 0.075948199999999993 5.6772400000000003 
upperback 10.3721 -0.51223700000000005 0.72368600000000005 
thorax 13.6021 0.34215499999999999 -2.4452799999999999 
lowerneck 1.47302 -3.97085 0.24105799999999999 
upperneck 17.669799999999999 -5.7806300000000004 3.6252900000000001 
head 5.1744899999999996 -2.5329000000000002 0.861232 
lclavicle 1.8288199999999999e-014 1.1927099999999999e-014 
lhumerus -19.434799999999999 -2.03146 86.562299999999993 
lradius 24.749600000000001 
lwrist -29.996600000000001 
lhand -15.409000000000001 -11.8369 
lfingers 7.1250200000000001 
lthumb 10.770300000000001 17.866900000000001 
rclavicle 1.8288199999999999e-014 1.1927099999999999e-014 
rhumerus -28.547000000000001 -27.148800000000001 -83.205500000000001 
rradius 22.007999999999999 
rwrist 16.481300000000001 
rhand -7.5842799999999997 12.100300000000001 
rfingers 7.1250200000000001 
rthumb 18.308800000000002 -17.058 
426
root 12.602069999999999 8.4515850000000015 -4.8235950000000001 -3.84795 24.580100000000002 359.44999999999999 
lfemur 4.2232399999999997 5.0308999999999999 -10.630800000000001 
ltibia 59.744 
lfoot 16.188600000000001 -0.395065 
ltoes -27.563400000000001 
rfemur -23.5594 -13.9977 24.3169 
rtibia 41.684100000000001 
rfoot -11.4078 9.4961300000000008 
rtoes -4.0014799999999999 
lowerback -3.9013900000000001 0.176789 5.8121900000000002 
upperback 10.3843 -0.38022800000000001 0.75839999999999996 
thorax 13.5154 0.41483500000000001 -2.4610099999999999 
lowerneck 1.5047299999999999 -4.0085199999999999 0.33161600000000002 
upperneck 17.640999999999998 -5.8222300000000002 3.5536599999999998 
head 5.1566099999999997 -2.55267 0.82339300000000004 
lclavicle 4.6515599999999997e-014 -1.3914900000000001e-014 
lhumerus -19.749300000000002 -0.46797899999999998 86.683899999999994 
lradius 23.288699999999999 
lwrist -31.458400000000001 
lhand -15.4283 -11.789 
lfingers 7.1250200000000001 
lthumb 10.7516 17.915900000000001 
rclavicle 4.6515599999999997e-014 -1.3914900000000001e-014 
rhumerus -27.831900000000001 -25.670200000000001 -84.088099999999997 
rradius 22.961099999999998 
rwrist 15.051600000000001 
rhand -7.7568900000000003 12.2784 
rfingers 7.1250200000000001 
rthumb 18.142700000000001 -16.895399999999999 
427
root 12.623085000000001 8.4622050000000009 -4.7638799999999994 -3.9965799999999998 24.195599999999999 359.30900000000003 
lfemur 2.88313 5.3152100000000004 -10.4704 
ltibia 61.410400000000003 
lfoot 15.155900000000001 -0.17469499999999999 
ltoes -27.433199999999999 
rfemur -22.7986 -13.8841 24.4145 
rtibia 41.430300000000003 
rfoot -11.7112 9.7326099999999993 
rtoes -4.0473699999999999 
lowerback -3.7585000000000002 0.29632999999999998 5.9844900000000001 
upperback 10.414 -0.231071 0.803392 
thorax 13.4788 0.50068000000000001 -2.4840200000000001 
lowerneck 1.4357 -4.0472200000000003 0.47317799999999999 
upperneck 17.662299999999998 -5.8635299999999999 3.4281600000000001 
head 5.1681499999999998 -2.5699900000000002 0.75781200000000004 
lclavicle 1.03368e-014 3.97569e-016 
lhumerus -20.062000000000001 1.39296 86.697599999999994 
lradius 21.881900000000002 
lwrist -33.295099999999998 
lhand -15.446099999999999 -11.7233 
lfingers 7.1250200000000001 
lthumb 10.734400000000001 17.982399999999998 
rclavicle 1.03368e-014 3.97569e-016 
rhumerus -27.036100000000001 -24.422899999999998 -84.854200000000006 
rradius 23.878699999999998 
rwrist 13.8178 
rhand -7.8509000000000002 12.3413 
rfingers 7.1250200000000001 
rthumb 18.052299999999999 -16.840900000000001 
428
root 12.643335 8.4724649999999997 -4.705425 -4.1241700000000003 23.846 359.23700000000002 
lfemur 1.54728 5.5809600000000001 -10.397 
ltibia 62.917900000000003 
lfoot 14.084899999999999 -0.186446 
ltoes -25.942900000000002 
rfemur -22.0303 -13.757199999999999 24.4358 
rtibia 41.154200000000003 
rfoot -11.977399999999999 9.9163200000000007 
rtoes -3.9209900000000002 
lowerback -3.5679400000000001 0.41156199999999998 6.1087600000000002 
upperback 10.4244 -0.073548500000000003 0.80939799999999995 
thorax 13.389699999999999 0.586368 -2.52284 
lowerneck 1.39517 -4.0995600000000003 0.60609999999999997 
upperneck 17.703800000000001 -5.9290700000000003 3.3455599999999999 
head 5.1829799999999997 -2.59687 0.70643299999999998 
lclavicle 3.1209199999999999e-014 -3.5781199999999999e-015 
lhumerus -20.382000000000001 3.05749 86.577500000000001 
lradius 20.5426 
lwrist -34.944400000000002 
lhand -15.3285 -11.5335 
lfingers 7.1250200000000001 
lthumb 10.847899999999999 18.1663 
rclavicle 3.1209199999999999e-014 -3.5781199999999999e-015 
rhumerus -26.366700000000002 -23.0928 -85.589600000000004 
rradius 24.957699999999999 
rwrist 12.438700000000001 
rhand -7.95031 12.225300000000001 
rfingers 7.1250200000000001 
rthumb 17.956700000000001 -16.965800000000002 
429
root 12.663314999999999 8.4819150000000008 -4.6475100000000005 -4.2689500000000002 23.467199999999998 359.12099999999998 
lfemur 0.25548300000000002 5.8204900000000004 -10.2989 
ltibia 64.247900000000001 
lfoot 12.982799999999999 -0.162886 
ltoes -23.921600000000002 
rfemur -21.2668 -13.6462 24.503399999999999 
rtibia 40.881599999999999 
rfoot -12.254300000000001 10.1168 
rtoes -3.8645900000000002 
lowerback -3.3877600000000001 0.51635399999999998 6.2458900000000002 
upperback 10.4452 0.064115199999999997 0.84841800000000001 
thorax 13.3186 0.66236600000000001 -2.5359400000000001 
lowerneck 1.32792 -4.1223299999999998 0.68422799999999995 
upperneck 17.735700000000001 -5.9564700000000004 3.2812700000000001 
head 5.2005999999999997 -2.6076600000000001 0.67070200000000002 
lclavicle 2.38542e-015 1.1529499999999999e-014 
lhumerus -20.7333 5.3575799999999996 86.420500000000004 
lradius 19.269100000000002 
lwrist -36.953000000000003 
lhand -15.0197 -11.029 
lfingers 7.1250200000000001 
lthumb 11.145799999999999 18.655000000000001 
rclavicle 2.38542e-015 1.1529499999999999e-014 
rhumerus -25.738 -21.954000000000001 -86.212999999999994 
rradius 26.0261 
rwrist 11.272500000000001 
rhand -8.1384399999999992 12.1495 
rfingers 7.1250200000000001 
rthumb 17.775600000000001 -17.058 
